<svg width="30" height="21" viewBox="0 0 30 21" fill="none" xmlns="http://www.w3.org/2000/svg">
<mask id="mask0" mask-type="alpha" maskUnits="userSpaceOnUse" x="0" y="0" width="30" height="21">
<rect width="30" height="20.2703" rx="2" fill="#C4C4C4"/>
</mask>
<g mask="url(#mask0)">
<path d="M30 0H0V20.2703H30V0Z" fill="#F0F0F0"/>
<path d="M17.8429 5.87065C15.4244 4.25835 12.1579 4.91753 10.5467 7.33175C9.7385 8.53677 10.067 10.1742 11.2762 10.9803C12.4844 11.7865 14.1166 11.4591 14.9227 10.2498C15.7288 9.04063 17.3621 8.7173 18.5703 9.51922C19.7805 10.3254 20.1059 11.9628 19.2987 13.1678C20.911 10.7496 20.2592 7.48301 17.8429 5.87065Z" fill="#FF4B55"/>
<path d="M10.5466 7.33179C9.73844 8.53681 10.067 10.1742 11.2761 10.9804C12.4843 11.7865 14.1165 11.4591 14.9226 10.2499C15.7288 9.04067 17.362 8.71734 18.5702 9.51926C19.7804 10.3254 20.1059 11.9628 19.2986 13.1678C17.6884 15.5904 14.423 16.2413 12.0046 14.629C9.58832 13.0169 8.93438 9.7503 10.5466 7.33179Z" fill="#41479B"/>
<path d="M20.5205 3.88272L21.4766 5.31974C21.5569 5.44047 21.5244 5.60348 21.4039 5.68415L21.1615 5.8465C21.0405 5.92746 20.8768 5.89491 20.7961 5.77376L19.8388 4.3371C19.7583 4.21625 19.791 4.05295 19.9117 3.97228L20.1554 3.80963C20.2764 3.72884 20.4399 3.76163 20.5205 3.88272Z" fill="#464655"/>
<path d="M21.9956 6.09835L22.9547 7.53447C23.0357 7.65574 23.0027 7.81982 22.881 7.90019L22.6375 8.06111C22.5167 8.141 22.354 8.10815 22.2736 7.98777L21.315 6.55315C21.2343 6.43236 21.2667 6.26893 21.3876 6.18814L21.6305 6.02573C21.7513 5.94495 21.9148 5.97744 21.9956 6.09835Z" fill="#464655"/>
<path d="M21.5442 3.19951L23.9785 6.85273C24.0591 6.97364 24.0264 7.137 23.9055 7.21761L23.6609 7.38062C23.54 7.46123 23.3766 7.42856 23.296 7.30764L20.8608 3.65466C20.7801 3.53369 20.8129 3.3702 20.934 3.28959L21.1793 3.12629C21.3003 3.04598 21.4636 3.07859 21.5442 3.19951Z" fill="#464655"/>
<path d="M22.5651 2.51749L23.5232 3.9573C23.6039 4.07857 23.5708 4.2423 23.4492 4.32261L23.2055 4.48359C23.0846 4.56348 22.9219 4.53063 22.8415 4.41001L21.8827 2.97211C21.802 2.85119 21.8347 2.68777 21.9557 2.6071L22.2 2.44421C22.321 2.3636 22.4844 2.39634 22.5651 2.51749Z" fill="#464655"/>
<path d="M24.0411 4.73774L24.9977 6.17457C25.0782 6.29537 25.0456 6.45849 24.925 6.53916L24.682 6.70157C24.561 6.78242 24.3973 6.74981 24.3167 6.62865L23.3601 5.19182C23.2796 5.07103 23.3122 4.9079 23.4328 4.82723L23.6758 4.66482C23.7968 4.58392 23.9604 4.61647 24.0411 4.73774Z" fill="#464655"/>
<path d="M7.5707 12.5156L10.0047 16.1649C10.0853 16.2858 10.0528 16.4491 9.93185 16.5298L9.68812 16.6926C9.5672 16.7733 9.40378 16.7407 9.32305 16.6197L6.88904 12.9704C6.80837 12.8496 6.84098 12.6862 6.9619 12.6055L7.20569 12.4428C7.32655 12.362 7.49003 12.3946 7.5707 12.5156Z" fill="#464655"/>
<path d="M6.54884 13.198L7.50446 14.6314C7.58501 14.7522 7.55252 14.9152 7.4319 14.996L7.18948 15.1583C7.06863 15.2392 6.90502 15.2067 6.82424 15.0858L5.86748 13.6527C5.78675 13.5319 5.81931 13.3685 5.94022 13.2877L6.18384 13.1251C6.30469 13.0444 6.46817 13.077 6.54884 13.198Z" fill="#464655"/>
<path d="M8.02562 15.4146L8.98232 16.8516C9.06281 16.9724 9.03019 17.1356 8.90946 17.2162L8.66632 17.3788C8.54535 17.4596 8.3818 17.427 8.30107 17.3059L7.34378 15.8692C7.26323 15.7483 7.29585 15.585 7.41664 15.5044L7.66038 15.3417C7.78141 15.2608 7.94495 15.2935 8.02562 15.4146Z" fill="#464655"/>
<path d="M5.52693 13.8805L7.95939 17.53C8.03994 17.6508 8.00732 17.814 7.88671 17.8947L7.64363 18.0573C7.52272 18.1381 7.35917 18.1055 7.27845 17.9845L4.84455 14.3355C4.76389 14.2146 4.79662 14.0512 4.91753 13.9705L5.1621 13.8075C5.2829 13.7269 5.44632 13.7596 5.52693 13.8805Z" fill="#464655"/>
<path d="M6.8894 7.53468L9.32305 3.88242C9.40372 3.76138 9.5672 3.72871 9.68818 3.80944L9.93185 3.97215C10.0527 4.05282 10.0853 4.21618 10.0047 4.33704L7.5701 7.98728C7.48961 8.10789 7.32679 8.14068 7.20593 8.06067L6.96321 7.89999C6.8417 7.81962 6.80867 7.65584 6.8894 7.53468Z" fill="#464655"/>
<path d="M5.86707 6.85306L8.30114 3.20008C8.38181 3.07904 8.54541 3.04637 8.66638 3.12722L8.90946 3.28975C9.03014 3.37042 9.06269 3.5336 8.9822 3.6544L6.54879 7.30756C6.46812 7.42859 6.30463 7.46132 6.18366 7.38053L5.93993 7.21783C5.81913 7.13722 5.78652 6.97391 5.86707 6.85306Z" fill="#464655"/>
<path d="M4.84413 6.17436L7.27844 2.51774C7.35911 2.39665 7.52277 2.36391 7.64374 2.44476L7.88682 2.60729C8.00744 2.68796 8.04005 2.85097 7.95968 2.97182L5.52686 6.62898C5.44631 6.75001 5.28277 6.78286 5.1618 6.70219L4.91735 6.53919C4.79637 6.45858 4.7637 6.29527 4.84413 6.17436Z" fill="#464655"/>
<path d="M19.8393 16.1648L20.796 14.7318C20.8768 14.6108 21.0404 14.5783 21.1613 14.6592L21.4037 14.8215C21.5243 14.9023 21.5567 15.0654 21.4762 15.1862L20.5206 16.6195C20.4399 16.7405 20.2764 16.7731 20.1555 16.6924L19.9119 16.5298C19.7911 16.4491 19.7585 16.2857 19.8393 16.1648Z" fill="#464655"/>
<path d="M21.3149 13.956L22.2732 12.5159C22.3538 12.3949 22.5173 12.3621 22.6383 12.4428L22.8825 12.6055C23.0035 12.6862 23.0361 12.8498 22.9554 12.9707L21.9951 14.4085C21.9145 14.5291 21.7517 14.5618 21.6308 14.4817L21.3887 14.3212C21.2673 14.2407 21.2343 14.0771 21.3149 13.956Z" fill="#464655"/>
<path d="M20.8608 16.851L21.8181 15.4143C21.8987 15.2933 22.0621 15.2606 22.1831 15.3412L22.4278 15.5044C22.5487 15.585 22.5813 15.7483 22.5008 15.8693L21.5441 17.3061C21.4635 17.4271 21.3002 17.4599 21.1792 17.3794L20.9339 17.2161C20.8129 17.1355 20.7801 16.972 20.8608 16.851Z" fill="#464655"/>
<path d="M22.338 14.6311L23.2959 13.1976C23.3766 13.0769 23.5399 13.0444 23.6607 13.1249L23.9053 13.2879C24.0263 13.3686 24.0589 13.5321 23.9781 13.6531L23.0202 15.0866C22.9395 15.2073 22.7762 15.2399 22.6554 15.1593L22.4108 14.9963C22.2898 14.9156 22.2572 14.7521 22.338 14.6311Z" fill="#464655"/>
<path d="M21.883 17.5297L22.8414 16.0954C22.9219 15.975 23.0845 15.9422 23.2053 16.0221L23.4489 16.1831C23.5705 16.2634 23.6036 16.4273 23.5228 16.5486L22.565 17.9848C22.4844 18.1057 22.321 18.1383 22.2001 18.0578L21.9558 17.8949C21.8347 17.8141 21.8021 17.6506 21.883 17.5297Z" fill="#464655"/>
<path d="M23.3606 15.317L24.3166 13.881C24.3973 13.7599 24.561 13.7272 24.6819 13.8081L24.9247 13.9704C25.0455 14.0511 25.0779 14.2144 24.9973 14.3352L24.0405 15.7693C23.96 15.89 23.797 15.9227 23.6762 15.8426L23.4341 15.6822C23.3129 15.6018 23.2799 15.4381 23.3606 15.317Z" fill="#464655"/>
</g>
</svg>
