<svg width="30" height="21" viewBox="0 0 30 21" fill="none" xmlns="http://www.w3.org/2000/svg">
<mask id="mask0" mask-type="alpha" maskUnits="userSpaceOnUse" x="0" y="0" width="30" height="21">
<rect width="30" height="20.2703" rx="2" fill="#C4C4C4"/>
</mask>
<g mask="url(#mask0)">
<path d="M30 0.000244141H0V20.0005H30V0.000244141Z" fill="#F0F0F0"/>
<path d="M16.875 0H13.125V8.12496H0V11.875H13.125V19.9999H16.875V11.875H30V8.12496H16.875V0Z" fill="#D80027"/>
<path d="M23.0733 13.4783L30 17.3265V13.4783H23.0733Z" fill="#0052B4"/>
<path d="M18.2609 13.4781L30 19.9999V18.1557L21.5805 13.4781H18.2609Z" fill="#0052B4"/>
<path d="M26.8731 19.9999L18.2608 15.2149V19.9999H26.8731Z" fill="#0052B4"/>
<path d="M18.2609 13.4781L30 19.9999V18.1557L21.5805 13.4781H18.2609Z" fill="#F0F0F0"/>
<path d="M18.2609 13.4781L30 19.9999V18.1557L21.5805 13.4781H18.2609Z" fill="#D80027"/>
<path d="M5.29342 13.478L0 16.4188V13.478H5.29342Z" fill="#0052B4"/>
<path d="M11.7391 14.3073V19.9998H1.49362L11.7391 14.3073Z" fill="#0052B4"/>
<path d="M8.41951 13.4781L0 18.1557V19.9999L11.7391 13.4781H8.41951Z" fill="#D80027"/>
<path d="M6.92666 6.52179L0 2.67358V6.52179H6.92666Z" fill="#0052B4"/>
<path d="M11.7391 6.52172L0 0V1.84418L8.41951 6.52172H11.7391Z" fill="#0052B4"/>
<path d="M3.12692 0L11.7392 4.785V0H3.12692Z" fill="#0052B4"/>
<path d="M11.7391 6.52172L0 0V1.84418L8.41951 6.52172H11.7391Z" fill="#F0F0F0"/>
<path d="M11.7391 6.52172L0 0V1.84418L8.41951 6.52172H11.7391Z" fill="#D80027"/>
<path d="M24.7066 6.52188L30 3.58105V6.52188H24.7066Z" fill="#0052B4"/>
<path d="M18.2609 5.6925V6.10352e-05H28.5064L18.2609 5.6925Z" fill="#0052B4"/>
<path d="M21.5805 6.52172L30 1.84418V0L18.2609 6.52172H21.5805Z" fill="#D80027"/>
</g>
</svg>
